<svg width="167" height="30" viewBox="0 0 167 30" fill="none" xmlns="http://www.w3.org/2000/svg">
    <path d="M46.4569 11.1271C47.2662 10.6794 48.1959 10.4556 49.2463 10.4556C50.8992 10.4556 52.3284 11.0754 53.4992 12.3151L55.9442 10.0595C55.1522 9.12975 54.1535 8.42379 52.9827 7.94168C51.8118 7.45956 50.5032 7.21851 49.0569 7.21851C47.335 7.21851 45.7854 7.58009 44.4079 8.32048C43.0304 9.06087 41.9457 10.0768 41.1709 11.3854C40.396 12.6939 40 14.1919 40 15.8621C40 17.6012 40.3788 19.0992 41.1192 20.3561C41.8768 21.6131 42.8755 22.5773 44.1496 23.2316C45.4238 23.8859 46.8185 24.213 48.3337 24.213C49.8317 24.213 51.0886 23.9203 52.139 23.3349V23.9203H53.7747H55.6171V15.4489C53.7058 15.4489 52.139 16.9985 52.139 18.927V19.7879V19.9084C51.2264 20.6661 50.1072 21.0276 48.7814 21.0276C47.886 21.0276 47.0595 20.821 46.3191 20.425C45.5615 20.029 44.9761 19.4436 44.5284 18.6515C44.0808 17.8767 43.8569 16.9297 43.8569 15.8105C43.8569 14.7429 44.0808 13.8131 44.5457 12.9867C45.0105 12.1946 45.6304 11.5748 46.4569 11.1271Z" fill="black"/>
    <path d="M68.4804 11.9529C67.4301 11.402 66.242 11.1265 64.9162 11.1265C63.5904 11.1265 62.3851 11.402 61.3348 11.9529C60.2844 12.5039 59.458 13.2788 58.8553 14.2602C58.2527 15.2417 57.96 16.3609 57.96 17.6178C57.96 18.8747 58.2527 19.9939 58.8553 20.9754C59.458 21.9568 60.2844 22.7317 61.3348 23.2826C62.3851 23.8336 63.5904 24.1091 64.9162 24.1091C66.242 24.1091 67.4301 23.8336 68.4804 23.2826C69.5307 22.7317 70.3572 21.9568 70.9426 20.9754C71.5453 19.9939 71.838 18.8747 71.838 17.6178C71.838 16.3609 71.5453 15.2417 70.9426 14.2602C70.3572 13.2788 69.5307 12.5039 68.4804 11.9529ZM67.2234 20.1661C66.6208 20.8032 65.846 21.1131 64.9162 21.1131C63.9692 21.1131 63.1943 20.8032 62.5917 20.1661C61.9891 19.529 61.6791 18.6853 61.6791 17.6178C61.6791 16.5503 61.9891 15.7066 62.5917 15.0695C63.1943 14.4324 63.9692 14.1225 64.9162 14.1225C65.8632 14.1225 66.6208 14.4324 67.2234 15.0695C67.8261 15.7066 68.136 16.5503 68.136 17.6178C68.136 18.6853 67.8261 19.529 67.2234 20.1661Z" fill="black"/>
    <path d="M79.431 21.2167C78.9317 21.2167 78.5529 21.0789 78.2774 20.7862C78.0191 20.4935 77.8814 20.0803 77.8814 19.5465V14.3982H80.9979V11.5744H77.8814C77.8814 9.86978 76.5039 8.49231 74.7993 8.49231H74.2139V19.5809C74.2139 21.0617 74.6271 22.1981 75.4364 22.9557C76.2456 23.7306 77.4165 24.1094 78.9317 24.1094C79.4999 24.1094 80.0337 24.0405 80.5674 23.9028C81.084 23.765 81.5317 23.5756 81.8933 23.3001L80.929 20.7174C80.4986 21.0617 79.982 21.2167 79.431 21.2167Z" fill="black"/>
    <path d="M93.1357 11.9529C92.0853 11.402 90.8973 11.1265 89.5715 11.1265C88.2456 11.1265 87.0404 11.402 85.99 11.9529C84.9397 12.5039 84.1132 13.2788 83.5106 14.2602C82.9079 15.2417 82.6152 16.3609 82.6152 17.6178C82.6152 18.8747 82.9079 19.9939 83.5106 20.9754C84.1132 21.9568 84.9397 22.7317 85.99 23.2826C87.0404 23.8336 88.2456 24.1091 89.5715 24.1091C90.8973 24.1091 92.0853 23.8336 93.1357 23.2826C94.186 22.7317 95.0125 21.9568 95.5979 20.9754C96.2005 19.9939 96.4933 18.8747 96.4933 17.6178C96.4933 16.3609 96.2005 15.2417 95.5979 14.2602C95.0125 13.2788 94.186 12.5039 93.1357 11.9529ZM91.8787 20.1661C91.2761 20.8032 90.5013 21.1131 89.5715 21.1131C88.6245 21.1131 87.8496 20.8032 87.247 20.1661C86.6443 19.529 86.3344 18.6853 86.3344 17.6178C86.3344 16.5503 86.6443 15.7066 87.247 15.0695C87.8496 14.4324 88.6245 14.1225 89.5715 14.1225C90.5185 14.1225 91.2761 14.4324 91.8787 15.0695C92.4814 15.7066 92.7913 16.5503 92.7913 17.6178C92.7913 18.6853 92.4814 19.529 91.8787 20.1661Z" fill="black"/>
    <path d="M109.407 14.4842C108.546 14.1743 107.461 13.8472 106.118 13.5372C104.827 13.2445 103.88 12.969 103.243 12.6763C102.623 12.3836 102.296 11.9359 102.296 11.3333C102.296 10.7306 102.571 10.2485 103.105 9.86971C103.656 9.50813 104.482 9.31873 105.619 9.31873C107.237 9.31873 108.856 9.78362 110.492 10.6962L111.748 7.61411C110.939 7.11477 110.009 6.73597 108.942 6.46048C107.874 6.18498 106.772 6.06445 105.653 6.06445C104.052 6.06445 102.692 6.30551 101.572 6.78763C100.453 7.26974 99.6268 7.92404 99.0758 8.75052C98.5248 9.577 98.2493 10.5068 98.2493 11.5227C98.2493 12.6935 98.5592 13.6233 99.1619 14.3293C99.7645 15.0352 100.505 15.5346 101.366 15.8617C102.227 16.1716 103.311 16.4988 104.655 16.8087C105.515 17.0153 106.221 17.1875 106.721 17.3597C107.237 17.5319 107.651 17.7557 107.978 18.0312C108.305 18.3067 108.46 18.6511 108.46 19.0643C108.46 19.6325 108.184 20.0974 107.633 20.4246C107.082 20.7689 106.221 20.9411 105.068 20.9411C104.035 20.9411 103.002 20.7689 101.951 20.4418C100.918 20.1146 100.023 19.667 99.2652 19.116L97.8877 22.1809C98.6797 22.7835 99.7128 23.2656 101.004 23.6444C102.296 24.0232 103.639 24.2126 105.033 24.2126C106.635 24.2126 107.995 23.9716 109.131 23.4895C110.25 23.0073 111.094 22.353 111.645 21.5266C112.213 20.7001 112.489 19.7875 112.489 18.7716C112.489 17.6008 112.179 16.671 111.576 15.9822C110.991 15.2935 110.25 14.7942 109.407 14.4842Z" fill="black"/>
    <path d="M119.858 21.2167C119.358 21.2167 118.98 21.0789 118.704 20.7862C118.446 20.4935 118.308 20.0803 118.308 19.5465V14.3982H121.425V11.5744H118.308C118.308 9.86978 116.931 8.49231 115.226 8.49231H114.641V19.5809C114.641 21.0617 115.054 22.1981 115.863 22.9557C116.672 23.7306 117.843 24.1094 119.358 24.1094C119.927 24.1094 120.46 24.0405 120.994 23.9028C121.511 23.765 121.958 23.5756 122.32 23.3001L121.356 20.7174C120.925 21.0617 120.426 21.2167 119.858 21.2167Z" fill="black"/>
    <path d="M131.325 11.1431C131.325 11.1431 131.497 11.1086 129.896 11.1086C128.708 11.1086 127.623 11.3669 126.659 11.9007C125.695 12.4345 124.937 13.1921 124.386 14.1735C123.835 15.155 123.56 16.3086 123.56 17.6C123.56 18.8913 123.835 20.045 124.386 21.0264C124.937 22.0079 125.695 22.7655 126.659 23.2993C127.623 23.833 128.691 24.0913 129.896 24.0913C131.618 24.0913 132.926 23.5403 133.839 22.4556V23.9191H137.334V17.29C137.334 13.9669 134.665 11.2292 131.325 11.1431ZM132.823 20.1655C132.22 20.8026 131.446 21.1125 130.516 21.1125C129.569 21.1125 128.794 20.8026 128.191 20.1655C127.589 19.5284 127.279 18.6847 127.279 17.6172C127.279 16.5496 127.589 15.7059 128.191 15.0689C128.794 14.4318 129.569 14.1219 130.516 14.1219C131.446 14.1219 132.203 14.4318 132.823 15.0689C133.426 15.7059 133.736 16.5496 133.736 17.6172C133.753 18.6847 133.443 19.5284 132.823 20.1655Z" fill="black"/>
    <path d="M165.918 17.9449C165.436 17.4284 164.868 17.0668 164.196 16.8774C163.542 16.688 162.698 16.4986 161.665 16.3264C160.735 16.1887 160.064 16.0337 159.65 15.8787C159.22 15.7238 159.013 15.4483 159.013 15.0523C159.013 14.7079 159.203 14.4324 159.599 14.2086C159.995 13.9847 160.58 13.8814 161.355 13.8814C162.664 13.8814 163.886 14.1913 164.988 14.8284L166.211 12.2284C165.625 11.8841 164.902 11.6086 164.007 11.4192C163.128 11.2298 162.233 11.1265 161.338 11.1265C160.132 11.1265 159.082 11.2986 158.204 11.643C157.326 11.9874 156.654 12.4695 156.189 13.0894C155.725 13.7092 155.501 14.4152 155.501 15.2072C155.501 16.1542 155.742 16.8946 156.241 17.4112C156.74 17.9277 157.326 18.2893 157.997 18.4959C158.669 18.7025 159.53 18.8747 160.563 19.0297C161.441 19.133 162.095 19.2708 162.509 19.4257C162.939 19.5807 163.146 19.839 163.146 20.2005C163.146 20.9754 162.371 21.3542 160.821 21.3542C160.046 21.3542 159.272 21.2336 158.479 21.0098C157.687 20.786 156.999 20.4933 156.431 20.1317L155.208 22.7661C155.811 23.1621 156.603 23.4893 157.601 23.7475C158.6 24.0058 159.633 24.1436 160.683 24.1436C161.923 24.1436 162.991 23.9714 163.886 23.6442C164.781 23.2999 165.47 22.835 165.935 22.2151C166.4 21.6125 166.641 20.9065 166.641 20.1317C166.641 19.1847 166.4 18.4615 165.918 17.9449Z" fill="black"/>
    <path d="M150.077 11.7453C149.112 11.2115 148.045 10.9532 146.84 10.9532H146.478C145.29 10.9532 144.205 11.2115 143.241 11.7453C142.277 12.2791 141.519 13.0367 140.968 14.0181C140.417 14.9996 140.142 16.1532 140.142 17.4446C140.142 17.479 140.159 23.9359 140.159 23.9359H143.861C143.861 23.9359 143.844 17.4962 143.844 17.4446C143.844 16.377 144.153 15.5333 144.756 14.8963L144.773 14.879C145.789 13.8459 147.477 13.8459 148.493 14.879L148.51 14.8963C149.112 15.5333 149.44 16.3598 149.44 17.4274C149.44 17.479 149.44 23.9359 149.44 23.9359H153.141C153.141 23.9359 153.141 17.479 153.141 17.4274C153.141 16.136 152.849 14.9996 152.298 14.0181C151.781 13.0367 151.041 12.2791 150.077 11.7453Z" fill="black"/>
    <path fill-rule="evenodd" clip-rule="evenodd" d="M14.9493 0.909414C7.18742 0.909414 0.895167 7.21802 0.895167 15.0001C0.895167 22.7821 7.18742 29.0907 14.9493 29.0907C22.7112 29.0907 29.0034 22.7821 29.0034 15.0001C29.0034 7.21802 22.7112 0.909414 14.9493 0.909414ZM0 15.0001C0 6.72234 6.69303 0.0119198 14.9493 0.0119198C23.2056 0.0119198 29.8986 6.72234 29.8986 15.0001C29.8986 23.2778 23.2056 29.9882 14.9493 29.9882C6.69303 29.9882 0 23.2778 0 15.0001Z" fill="#0E80F6"/>
    <path fill-rule="evenodd" clip-rule="evenodd" d="M15.1212 0.0845485L14.8597 0.448747L14.5982 0.0845485C14.7544 -0.0281829 14.965 -0.0281828 15.1212 0.0845485ZM20.5911 9.25373C20.5933 9.16005 20.5944 9.06601 20.5944 8.97162C20.5944 6.45634 19.188 4.22234 17.8428 2.65259C17.1642 1.86083 16.4868 1.22129 15.9792 0.779603C15.7251 0.55849 15.5127 0.386262 15.3629 0.268627C15.288 0.209793 15.2287 0.164565 15.1875 0.133658C15.167 0.118203 15.1509 0.106324 15.1398 0.0981109C15.1342 0.094004 15.1298 0.090813 15.1267 0.088549L15.123 0.0858495L15.1212 0.0845485C15.1212 0.0845485 15.1212 0.0845485 14.8597 0.448747C14.5982 0.0845485 14.5982 0.0845485 14.5982 0.0845485L14.5964 0.0858495L14.5927 0.088549C14.5896 0.090813 14.5853 0.094004 14.5797 0.0981109C14.5685 0.106324 14.5525 0.118203 14.5319 0.133658C14.4908 0.164565 14.4315 0.209793 14.3566 0.268627C14.2068 0.386262 13.9944 0.55849 13.7403 0.779603C13.2326 1.22129 12.5553 1.86083 11.8767 2.65259C10.5315 4.22234 9.12508 6.45634 9.12508 8.97162C9.12508 9.06599 9.12618 9.16002 9.12834 9.25369C9.03491 9.25152 8.9411 9.25042 8.84696 9.25042C6.3382 9.25042 4.10999 10.6604 2.54431 12.0092C1.7546 12.6895 1.11672 13.3687 0.676176 13.8776C0.455637 14.1324 0.283855 14.3453 0.166525 14.4955C0.107843 14.5706 0.0627329 14.6301 0.0319061 14.6713C0.0164912 14.6919 0.0431616 14.808 0.0315488 14.7728C0.0338069 14.7697 0.0670039 14.8264 0.0315488 14.7728C0.0315488 14.7728 0.031906 14.7375 0.346178 15L0.0315488 14.7728C0.0475188 15.0353 0.0503372 15.0056 0.0320993 15.2677L0.346178 15C0.0320993 15.2677 0.0320993 15.2677 0.0320993 15.2677C0.0677477 15.2546 0.0343574 15.2708 0.0320993 15.2677C0.0677477 15.2546 0.0164911 15.308 0.031906 15.3286C0.0627328 15.3699 0.107843 15.4293 0.166525 15.5045C0.283855 15.6546 0.455637 15.8676 0.676176 16.1224C1.11672 16.6313 1.7546 17.3104 2.54431 17.9907C4.10999 19.3395 6.3382 20.7495 8.84696 20.7495C8.94109 20.7495 9.03487 20.7484 9.12829 20.7463C9.12613 20.8399 9.12504 20.934 9.12504 21.0284C9.12503 23.5437 10.5314 25.7777 11.8767 27.3474C12.5552 28.1392 13.2326 28.7787 13.7402 29.2204C13.9943 29.4415 14.2067 29.6137 14.3565 29.7314C14.4314 29.7902 14.4908 29.8354 14.5319 29.8663C14.5525 29.8818 14.5685 29.8937 14.5796 29.9019C14.5852 29.906 14.5896 29.9092 14.5927 29.9115L14.5964 29.9142L14.5975 29.915C14.5975 29.915 14.5982 29.9155 14.8597 29.5513L14.5975 29.915C14.7537 30.0277 14.965 30.0282 15.1212 29.9155L14.8597 29.5513C15.1212 29.9155 15.1212 29.9155 15.1212 29.9155L15.123 29.9142L15.1267 29.9115C15.1298 29.9092 15.1342 29.906 15.1397 29.9019C15.1509 29.8937 15.1669 29.8818 15.1875 29.8663C15.2286 29.8354 15.2879 29.7902 15.3629 29.7314C15.5127 29.6137 15.725 29.4415 15.9792 29.2204C16.4868 28.7787 17.1642 28.1392 17.8427 27.3474C19.188 25.7777 20.5943 23.5437 20.5943 21.0284C20.5943 20.934 20.5932 20.84 20.5911 20.7463C20.6845 20.7485 20.7783 20.7496 20.8725 20.7496C23.3812 20.7496 25.6094 19.3396 27.1751 17.9908C27.9648 17.3105 28.6027 16.6313 29.0433 16.1224C29.2638 15.8676 29.4356 15.6547 29.5529 15.5045C29.6116 15.4294 29.6567 15.3699 29.6875 15.3287C29.7029 15.3081 29.7148 15.292 29.723 15.2808C29.7271 15.2752 29.7303 15.2708 29.7325 15.2677L29.7352 15.264L29.736 15.2629C29.736 15.2629 29.7365 15.2622 29.3732 15L29.736 15.2629C29.8485 15.1063 29.8489 14.8945 29.7365 14.7379L29.3732 15C29.7365 14.7379 29.7365 14.7379 29.7365 14.7379L29.7352 14.7361L29.7325 14.7323C29.7303 14.7292 29.7271 14.7248 29.723 14.7192C29.72 14.7152 29.7165 14.7105 29.7126 14.7051C29.7057 14.6958 29.6973 14.6845 29.6875 14.6714C29.6567 14.6301 29.6116 14.5707 29.5529 14.4955C29.4356 14.3454 29.2638 14.1324 29.0433 13.8776C28.6027 13.3687 27.9648 12.6896 27.1751 12.0093C25.6094 10.6605 23.3812 9.25047 20.8725 9.25047C20.7783 9.25047 20.6846 9.25156 20.5911 9.25373ZM28.8097 15C28.7023 14.8639 28.5535 14.6811 28.3672 14.4659C27.9474 13.9809 27.3404 13.3349 26.5917 12.69C25.0807 11.3883 23.0586 10.148 20.8725 10.148C20.6295 10.148 20.389 10.1558 20.1514 10.1711C20.023 10.1794 19.8973 10.1319 19.8063 10.0406C19.7153 9.9494 19.6678 9.82332 19.6761 9.69456C19.6914 9.45636 19.6992 9.21523 19.6992 8.97162C19.6992 6.77984 18.4621 4.75241 17.1638 3.23749C16.5206 2.48691 15.8762 1.8783 15.3925 1.45743C15.1778 1.27067 14.9955 1.12143 14.8597 1.01372C14.724 1.12143 14.5416 1.27067 14.327 1.45743C13.8433 1.8783 13.1989 2.48691 12.5557 3.23749C11.2574 4.75241 10.0203 6.77984 10.0203 8.97162C10.0203 9.21522 10.0281 9.45633 10.0434 9.69452C10.0516 9.82327 10.0042 9.94936 9.9132 10.0406C9.8222 10.1318 9.69645 10.1794 9.56802 10.1711C9.33044 10.1558 9.08994 10.1479 8.84696 10.1479C6.66086 10.1479 4.63868 11.3883 3.12769 12.6899C2.37906 13.3348 1.77203 13.9809 1.35225 14.4659C1.16597 14.6811 1.01712 14.8639 0.909683 15C1.01712 15.1361 1.16597 15.3189 1.35225 15.5341C1.77203 16.0191 2.37906 16.6651 3.12769 17.31C4.63868 18.6117 6.66086 19.852 8.84696 19.852C9.08992 19.852 9.33041 19.8442 9.56798 19.8289C9.6964 19.8206 9.82216 19.8681 9.91315 19.9594C10.0041 20.0506 10.0516 20.1767 10.0433 20.3054C10.0281 20.5436 10.0202 20.7848 10.0202 21.0284C10.0202 23.2202 11.2574 25.2476 12.5556 26.7625C13.1989 27.5131 13.8432 28.1217 14.3269 28.5426C14.5416 28.7293 14.724 28.8786 14.8597 28.9863C14.9954 28.8786 15.1778 28.7293 15.3924 28.5426C15.8761 28.1217 16.5205 27.5131 17.1637 26.7625C18.462 25.2476 19.6992 23.2202 19.6992 21.0284C19.6992 20.7848 19.6913 20.5437 19.6761 20.3055C19.6678 20.1767 19.7152 20.0506 19.8062 19.9594C19.8972 19.8682 20.023 19.8206 20.1514 19.8289C20.389 19.8442 20.6295 19.8521 20.8725 19.8521C23.0586 19.8521 25.0807 18.6117 26.5917 17.3101C27.3404 16.6652 27.9474 16.0191 28.3672 15.5341C28.5535 15.319 28.7023 15.1361 28.8097 15Z" fill="#0E80F6"/>
    <path fill-rule="evenodd" clip-rule="evenodd" d="M25.5063 4.69646L25.0645 4.7686L25.1365 4.32569C25.3264 4.35671 25.4753 4.50601 25.5063 4.69646ZM22.9233 14.9998C22.9898 14.9361 23.0558 14.8714 23.1214 14.8057C24.886 13.0365 25.4639 10.4735 25.6189 8.42126C25.6971 7.38606 25.6693 6.45873 25.6221 5.79023C25.5985 5.45557 25.5699 5.18471 25.5471 4.99637C25.5357 4.90217 25.5257 4.82853 25.5185 4.77778C25.5148 4.75241 25.5119 4.73275 25.5098 4.7191C25.5088 4.71228 25.5079 4.70695 25.5073 4.70317L25.5066 4.69865L25.5063 4.69646C25.5063 4.69646 25.5063 4.69646 25.0645 4.7686C25.1365 4.32569 25.1365 4.32569 25.1365 4.32569L25.1343 4.32534L25.1298 4.32462C25.126 4.32402 25.1207 4.32319 25.1139 4.32214C25.1003 4.32005 25.0807 4.3171 25.0553 4.31347C25.0047 4.3062 24.9313 4.29618 24.8373 4.28473C24.6495 4.26184 24.3793 4.23322 24.0455 4.20954C23.3787 4.16225 22.4538 4.13439 21.4213 4.21278C19.3744 4.36818 16.818 4.94761 15.0534 6.7168C14.9878 6.78258 14.9232 6.84888 14.8596 6.91567C14.796 6.84895 14.7315 6.78272 14.6659 6.71701C12.9013 4.94781 10.345 4.36838 8.29804 4.21298C7.26553 4.1346 6.34061 4.16245 5.67384 4.20975C5.34004 4.23342 5.06989 4.26205 4.88203 4.28494C4.78807 4.29639 4.71463 4.30641 4.66401 4.31367C4.6387 4.31731 4.6191 4.32026 4.60548 4.32235C4.60282 4.32276 4.60038 4.32313 4.59818 4.32348C4.59475 4.32401 4.59189 4.32446 4.58959 4.32482L4.58508 4.32554L4.58323 4.32584C4.58323 4.32584 4.5829 4.3259 4.65486 4.76881L4.58323 4.32584C4.39327 4.35687 4.24404 4.50622 4.2131 4.69666L4.65486 4.76881C4.2131 4.69666 4.2131 4.69666 4.2131 4.69666L4.21274 4.69885L4.21202 4.70337C4.21143 4.70716 4.2106 4.71248 4.20955 4.71931C4.20747 4.73295 4.20453 4.75261 4.2009 4.77799C4.19366 4.82873 4.18366 4.90237 4.17224 4.99657C4.14941 5.18492 4.12086 5.45578 4.09725 5.79043C4.05007 6.45894 4.02229 7.38627 4.10047 8.42146C4.25547 10.4737 4.8334 13.0367 6.598 14.8059C6.66364 14.8717 6.72979 14.9365 6.79643 15.0003C6.72991 15.064 6.66388 15.1287 6.59837 15.1944C4.83376 16.9636 4.25583 19.5266 4.10083 21.5788C4.02265 22.614 4.05043 23.5414 4.0976 24.2099C4.12122 24.5445 4.14977 24.8154 4.1726 25.0037C4.18402 25.0979 4.19401 25.1716 4.20126 25.2223C4.20346 25.2377 4.2054 25.251 4.20706 25.2621C4.20814 25.2693 4.20909 25.2756 4.20991 25.281C4.21096 25.2878 4.21179 25.2931 4.21238 25.2969L4.21332 25.3028C4.21332 25.3028 4.21345 25.3036 4.65522 25.2315L4.21332 25.3028C4.24427 25.4933 4.3933 25.6434 4.58326 25.6744L4.65522 25.2315C4.58326 25.6744 4.58326 25.6744 4.58326 25.6744L4.58995 25.6755C4.59373 25.6761 4.59903 25.6769 4.60584 25.678C4.61946 25.68 4.63906 25.683 4.66437 25.6866C4.71498 25.6939 4.78843 25.7039 4.88239 25.7154C5.07025 25.7383 5.3404 25.7669 5.67419 25.7906C6.34097 25.8379 7.26589 25.8657 8.2984 25.7873C10.3454 25.6319 12.9017 25.0525 14.6663 23.2833C14.7319 23.2175 14.7965 23.1512 14.8601 23.0844C14.9237 23.1511 14.9882 23.2174 15.0538 23.2831C16.8184 25.0523 19.3747 25.6317 21.4217 25.7871C22.4542 25.8655 23.3791 25.8376 24.0459 25.7903C24.3797 25.7667 24.6498 25.738 24.8377 25.7152C24.9316 25.7037 25.0051 25.6937 25.0557 25.6864C25.081 25.6828 25.1006 25.6798 25.1142 25.6777C25.121 25.6767 25.1263 25.6759 25.1301 25.6753L25.136 25.6743C25.136 25.6743 25.1368 25.6742 25.0649 25.2313L25.136 25.6743C25.326 25.6433 25.4757 25.4939 25.5066 25.3034L25.0649 25.2313C25.5066 25.3034 25.5066 25.3034 25.5066 25.3034L25.5077 25.2967L25.5085 25.2917C25.509 25.2886 25.5095 25.285 25.5102 25.2808C25.5122 25.2671 25.5152 25.2475 25.5188 25.2221C25.5261 25.1714 25.5361 25.0977 25.5475 25.0035C25.5703 24.8152 25.5989 24.5443 25.6225 24.2097C25.6696 23.5412 25.6974 22.6138 25.6192 21.5786C25.4642 19.5264 24.8863 16.9634 23.1217 15.1942C23.0561 15.1284 22.9899 15.0636 22.9233 14.9998ZM24.6664 24.8318C24.6862 24.6606 24.7097 24.4278 24.7295 24.1463C24.7745 23.5095 24.8007 22.6274 24.7266 21.6464C24.5771 19.6662 24.0252 17.3693 22.4887 15.8288C22.3179 15.6575 22.1432 15.4935 21.9654 15.3368C21.8688 15.2516 21.8134 15.1288 21.8134 14.9998C21.8134 14.8708 21.8688 14.748 21.9654 14.6628C22.1431 14.5062 22.3176 14.3423 22.4884 14.1711C24.0248 12.6306 24.5767 10.3337 24.7263 8.35349C24.8004 7.37245 24.7741 6.49039 24.7292 5.85357C24.7093 5.57208 24.6859 5.33933 24.666 5.16813C24.4952 5.14823 24.2631 5.12471 23.9823 5.1048C23.3472 5.05974 22.4674 5.03342 21.4889 5.10771C19.5138 5.25765 17.2229 5.81098 15.6864 7.35143C15.5156 7.5227 15.352 7.69778 15.1957 7.87601C15.1107 7.9729 14.9883 8.02843 14.8596 8.02843C14.7309 8.02843 14.6084 7.9729 14.5235 7.87601C14.3672 7.69785 14.2037 7.52285 14.0329 7.35163C12.4965 5.81118 10.2055 5.25786 8.23045 5.10791C7.25195 5.03363 6.37218 5.05995 5.73701 5.105C5.45625 5.12492 5.22411 5.14843 5.05334 5.16833C5.0335 5.33954 5.01004 5.57228 4.99018 5.85377C4.94524 6.49059 4.91899 7.37265 4.99308 8.3537C5.14264 10.3339 5.69453 12.6308 7.23098 14.1713C7.40184 14.3426 7.57649 14.5066 7.75428 14.6633C7.85092 14.7485 7.90631 14.8713 7.90631 15.0003C7.90631 15.1293 7.85093 15.2521 7.75429 15.3373C7.57662 15.4939 7.40209 15.6578 7.23135 15.829C5.69489 17.3695 5.143 19.6664 4.99344 21.6466C4.91935 22.6276 4.9456 23.5097 4.99054 24.1465C5.0104 24.428 5.03386 24.6608 5.0537 24.832C5.22447 24.8519 5.45661 24.8754 5.73737 24.8953C6.37254 24.9404 7.25231 24.9667 8.23081 24.8924C10.2059 24.7424 12.4969 24.1891 14.0333 22.6487C14.2041 22.4774 14.3677 22.3023 14.524 22.1241C14.609 22.0272 14.7314 21.9717 14.8601 21.9717C14.9888 21.9717 15.1113 22.0272 15.1962 22.1241C15.3525 22.3022 15.516 22.4773 15.6868 22.6485C17.2232 24.1889 19.5142 24.7422 21.4893 24.8922C22.4678 24.9665 23.3475 24.9401 23.9827 24.8951C24.2635 24.8752 24.4956 24.8517 24.6664 24.8318Z" fill="#0E80F6"/>
</svg>
